<mxfile host="app.diagrams.net" agent="Mozilla/5.0 (Windows NT 10.0; Win64; x64; rv:130.0) Gecko/20100101 Firefox/130.0" version="24.7.10">
  <diagram name="หน้า-1" id="qQfYxGUEPipdVxSLCB8Y">
    <mxGraphModel dx="1050" dy="558" grid="1" gridSize="10" guides="1" tooltips="1" connect="1" arrows="1" fold="1" page="1" pageScale="1" pageWidth="827" pageHeight="1169" math="0" shadow="0">
      <root>
        <mxCell id="0" />
        <mxCell id="1" parent="0" />
        <mxCell id="jhZBDQJKlJrp_bP3Eso0-7" style="edgeStyle=orthogonalEdgeStyle;rounded=0;orthogonalLoop=1;jettySize=auto;html=1;entryX=0.5;entryY=0;entryDx=0;entryDy=0;" edge="1" parent="1" source="jhZBDQJKlJrp_bP3Eso0-1" target="jhZBDQJKlJrp_bP3Eso0-4">
          <mxGeometry relative="1" as="geometry" />
        </mxCell>
        <mxCell id="jhZBDQJKlJrp_bP3Eso0-1" value="SB recieve Emboss Data" style="rounded=0;whiteSpace=wrap;html=1;" vertex="1" parent="1">
          <mxGeometry x="304" y="130" width="120" height="50" as="geometry" />
        </mxCell>
        <mxCell id="jhZBDQJKlJrp_bP3Eso0-2" value="start" style="ellipse;whiteSpace=wrap;html=1;" vertex="1" parent="1">
          <mxGeometry x="329" y="10" width="70" height="60" as="geometry" />
        </mxCell>
        <mxCell id="jhZBDQJKlJrp_bP3Eso0-3" value="KBank provide Engrave Data" style="rounded=0;whiteSpace=wrap;html=1;" vertex="1" parent="1">
          <mxGeometry x="610" y="60" width="120" height="60" as="geometry" />
        </mxCell>
        <mxCell id="jhZBDQJKlJrp_bP3Eso0-12" value="yes" style="edgeStyle=orthogonalEdgeStyle;rounded=0;orthogonalLoop=1;jettySize=auto;html=1;" edge="1" parent="1" source="jhZBDQJKlJrp_bP3Eso0-4" target="jhZBDQJKlJrp_bP3Eso0-9">
          <mxGeometry relative="1" as="geometry" />
        </mxCell>
        <mxCell id="jhZBDQJKlJrp_bP3Eso0-13" value="no" style="edgeStyle=orthogonalEdgeStyle;rounded=0;orthogonalLoop=1;jettySize=auto;html=1;entryX=0.5;entryY=0;entryDx=0;entryDy=0;" edge="1" parent="1" source="jhZBDQJKlJrp_bP3Eso0-4" target="jhZBDQJKlJrp_bP3Eso0-10">
          <mxGeometry relative="1" as="geometry" />
        </mxCell>
        <mxCell id="jhZBDQJKlJrp_bP3Eso0-4" value="&lt;div&gt;Engrave have provided? &lt;br&gt;&lt;/div&gt;" style="rhombus;whiteSpace=wrap;html=1;" vertex="1" parent="1">
          <mxGeometry x="314" y="250" width="100" height="80" as="geometry" />
        </mxCell>
        <mxCell id="jhZBDQJKlJrp_bP3Eso0-5" style="edgeStyle=orthogonalEdgeStyle;rounded=0;orthogonalLoop=1;jettySize=auto;html=1;entryX=0.5;entryY=0;entryDx=0;entryDy=0;" edge="1" parent="1" source="jhZBDQJKlJrp_bP3Eso0-2" target="jhZBDQJKlJrp_bP3Eso0-1">
          <mxGeometry relative="1" as="geometry" />
        </mxCell>
        <mxCell id="jhZBDQJKlJrp_bP3Eso0-6" value="" style="endArrow=none;dashed=1;html=1;dashPattern=1 3;strokeWidth=2;rounded=0;entryX=0;entryY=0.75;entryDx=0;entryDy=0;exitX=1;exitY=0.5;exitDx=0;exitDy=0;" edge="1" parent="1" source="jhZBDQJKlJrp_bP3Eso0-1" target="jhZBDQJKlJrp_bP3Eso0-3">
          <mxGeometry width="50" height="50" relative="1" as="geometry">
            <mxPoint x="500" y="160" as="sourcePoint" />
            <mxPoint x="550" y="110" as="targetPoint" />
          </mxGeometry>
        </mxCell>
        <mxCell id="jhZBDQJKlJrp_bP3Eso0-15" style="edgeStyle=orthogonalEdgeStyle;rounded=0;orthogonalLoop=1;jettySize=auto;html=1;entryX=0.5;entryY=0;entryDx=0;entryDy=0;" edge="1" parent="1" source="jhZBDQJKlJrp_bP3Eso0-9" target="jhZBDQJKlJrp_bP3Eso0-14">
          <mxGeometry relative="1" as="geometry" />
        </mxCell>
        <mxCell id="jhZBDQJKlJrp_bP3Eso0-9" value="Data engineer create Engrave data file with engrave number" style="rounded=0;whiteSpace=wrap;html=1;" vertex="1" parent="1">
          <mxGeometry x="300" y="390" width="120" height="60" as="geometry" />
        </mxCell>
        <mxCell id="jhZBDQJKlJrp_bP3Eso0-19" style="edgeStyle=orthogonalEdgeStyle;rounded=0;orthogonalLoop=1;jettySize=auto;html=1;entryX=1;entryY=0.5;entryDx=0;entryDy=0;" edge="1" parent="1" source="jhZBDQJKlJrp_bP3Eso0-10" target="jhZBDQJKlJrp_bP3Eso0-17">
          <mxGeometry relative="1" as="geometry" />
        </mxCell>
        <mxCell id="jhZBDQJKlJrp_bP3Eso0-10" value="&lt;div&gt;Machine run cards to create logs &lt;br&gt;&lt;/div&gt;&lt;div&gt;(UID only)&lt;br&gt;&lt;/div&gt;" style="rounded=0;whiteSpace=wrap;html=1;" vertex="1" parent="1">
          <mxGeometry x="490" y="610" width="120" height="60" as="geometry" />
        </mxCell>
        <mxCell id="jhZBDQJKlJrp_bP3Eso0-18" style="edgeStyle=orthogonalEdgeStyle;rounded=0;orthogonalLoop=1;jettySize=auto;html=1;entryX=0;entryY=0.5;entryDx=0;entryDy=0;" edge="1" parent="1" source="jhZBDQJKlJrp_bP3Eso0-11" target="jhZBDQJKlJrp_bP3Eso0-17">
          <mxGeometry relative="1" as="geometry" />
        </mxCell>
        <mxCell id="jhZBDQJKlJrp_bP3Eso0-11" value="&lt;div&gt;Machine print Engrave on cards &amp;amp; create logs &lt;br&gt;&lt;/div&gt;&lt;div&gt;(Engrave, UID)&lt;br&gt;&lt;/div&gt;" style="rounded=0;whiteSpace=wrap;html=1;" vertex="1" parent="1">
          <mxGeometry x="300" y="610" width="120" height="60" as="geometry" />
        </mxCell>
        <mxCell id="jhZBDQJKlJrp_bP3Eso0-16" style="edgeStyle=orthogonalEdgeStyle;rounded=0;orthogonalLoop=1;jettySize=auto;html=1;entryX=0.5;entryY=0;entryDx=0;entryDy=0;" edge="1" parent="1" source="jhZBDQJKlJrp_bP3Eso0-14" target="jhZBDQJKlJrp_bP3Eso0-11">
          <mxGeometry relative="1" as="geometry" />
        </mxCell>
        <mxCell id="jhZBDQJKlJrp_bP3Eso0-14" value="Data engineer provide Engrave data file to Machine" style="rounded=0;whiteSpace=wrap;html=1;" vertex="1" parent="1">
          <mxGeometry x="300" y="500" width="120" height="60" as="geometry" />
        </mxCell>
        <mxCell id="jhZBDQJKlJrp_bP3Eso0-22" style="edgeStyle=orthogonalEdgeStyle;rounded=0;orthogonalLoop=1;jettySize=auto;html=1;" edge="1" parent="1" source="jhZBDQJKlJrp_bP3Eso0-17" target="jhZBDQJKlJrp_bP3Eso0-21">
          <mxGeometry relative="1" as="geometry" />
        </mxCell>
        <mxCell id="jhZBDQJKlJrp_bP3Eso0-17" value="&lt;div&gt;SB softwre use machine logs as an input to generate .ORG/.ORG2 file&lt;br&gt;&lt;/div&gt;" style="rounded=0;whiteSpace=wrap;html=1;" vertex="1" parent="1">
          <mxGeometry x="395" y="730" width="120" height="80" as="geometry" />
        </mxCell>
        <mxCell id="jhZBDQJKlJrp_bP3Eso0-27" style="edgeStyle=orthogonalEdgeStyle;rounded=0;orthogonalLoop=1;jettySize=auto;html=1;entryX=0;entryY=0.5;entryDx=0;entryDy=0;" edge="1" parent="1" source="jhZBDQJKlJrp_bP3Eso0-20" target="jhZBDQJKlJrp_bP3Eso0-26">
          <mxGeometry relative="1" as="geometry" />
        </mxCell>
        <mxCell id="jhZBDQJKlJrp_bP3Eso0-20" value="SB Software generate .ORG" style="rounded=0;whiteSpace=wrap;html=1;" vertex="1" parent="1">
          <mxGeometry x="294" y="1010" width="120" height="60" as="geometry" />
        </mxCell>
        <mxCell id="jhZBDQJKlJrp_bP3Eso0-23" value="yes" style="edgeStyle=orthogonalEdgeStyle;rounded=0;orthogonalLoop=1;jettySize=auto;html=1;" edge="1" parent="1" source="jhZBDQJKlJrp_bP3Eso0-21" target="jhZBDQJKlJrp_bP3Eso0-20">
          <mxGeometry relative="1" as="geometry" />
        </mxCell>
        <mxCell id="jhZBDQJKlJrp_bP3Eso0-25" value="no" style="edgeStyle=orthogonalEdgeStyle;rounded=0;orthogonalLoop=1;jettySize=auto;html=1;entryX=0.5;entryY=0;entryDx=0;entryDy=0;" edge="1" parent="1" source="jhZBDQJKlJrp_bP3Eso0-21" target="jhZBDQJKlJrp_bP3Eso0-24">
          <mxGeometry relative="1" as="geometry" />
        </mxCell>
        <mxCell id="jhZBDQJKlJrp_bP3Eso0-21" value="&lt;div&gt;Log include Engrave&amp;nbsp;&lt;/div&gt;&lt;div&gt;number?&lt;/div&gt;" style="rhombus;whiteSpace=wrap;html=1;" vertex="1" parent="1">
          <mxGeometry x="407.5" y="860" width="95" height="80" as="geometry" />
        </mxCell>
        <mxCell id="jhZBDQJKlJrp_bP3Eso0-28" style="edgeStyle=orthogonalEdgeStyle;rounded=0;orthogonalLoop=1;jettySize=auto;html=1;entryX=1;entryY=0.5;entryDx=0;entryDy=0;" edge="1" parent="1" source="jhZBDQJKlJrp_bP3Eso0-24" target="jhZBDQJKlJrp_bP3Eso0-26">
          <mxGeometry relative="1" as="geometry" />
        </mxCell>
        <mxCell id="jhZBDQJKlJrp_bP3Eso0-24" value="&lt;div&gt;SB Software generate .ORG2&lt;/div&gt;" style="rounded=0;whiteSpace=wrap;html=1;fillColor=#fff2cc;strokeColor=#d6b656;" vertex="1" parent="1">
          <mxGeometry x="502.5" y="1010" width="120" height="60" as="geometry" />
        </mxCell>
        <mxCell id="jhZBDQJKlJrp_bP3Eso0-35" style="edgeStyle=orthogonalEdgeStyle;rounded=0;orthogonalLoop=1;jettySize=auto;html=1;entryX=0.5;entryY=0;entryDx=0;entryDy=0;" edge="1" parent="1" source="jhZBDQJKlJrp_bP3Eso0-26" target="jhZBDQJKlJrp_bP3Eso0-34">
          <mxGeometry relative="1" as="geometry" />
        </mxCell>
        <mxCell id="jhZBDQJKlJrp_bP3Eso0-26" value="&lt;div&gt;SB upload .ORG/.ORG2&amp;nbsp;&lt;/div&gt;&lt;div&gt;on AWS&lt;/div&gt;" style="rounded=0;whiteSpace=wrap;html=1;" vertex="1" parent="1">
          <mxGeometry x="400" y="1140" width="120" height="60" as="geometry" />
        </mxCell>
        <mxCell id="jhZBDQJKlJrp_bP3Eso0-39" style="edgeStyle=orthogonalEdgeStyle;rounded=0;orthogonalLoop=1;jettySize=auto;html=1;entryX=0;entryY=0.5;entryDx=0;entryDy=0;" edge="1" parent="1" source="jhZBDQJKlJrp_bP3Eso0-29" target="jhZBDQJKlJrp_bP3Eso0-30">
          <mxGeometry relative="1" as="geometry" />
        </mxCell>
        <mxCell id="jhZBDQJKlJrp_bP3Eso0-29" value="SB deliver cards to MRT to perso" style="rounded=0;whiteSpace=wrap;html=1;" vertex="1" parent="1">
          <mxGeometry x="20" y="1330" width="120" height="60" as="geometry" />
        </mxCell>
        <mxCell id="jhZBDQJKlJrp_bP3Eso0-47" style="edgeStyle=orthogonalEdgeStyle;rounded=0;orthogonalLoop=1;jettySize=auto;html=1;entryX=0.5;entryY=0;entryDx=0;entryDy=0;" edge="1" parent="1" source="jhZBDQJKlJrp_bP3Eso0-30" target="jhZBDQJKlJrp_bP3Eso0-31">
          <mxGeometry relative="1" as="geometry" />
        </mxCell>
        <mxCell id="jhZBDQJKlJrp_bP3Eso0-30" value="SB recieve back the cards from MRT" style="rounded=0;whiteSpace=wrap;html=1;" vertex="1" parent="1">
          <mxGeometry x="220" y="1330" width="120" height="60" as="geometry" />
        </mxCell>
        <mxCell id="jhZBDQJKlJrp_bP3Eso0-48" style="edgeStyle=orthogonalEdgeStyle;rounded=0;orthogonalLoop=1;jettySize=auto;html=1;entryX=1;entryY=0.5;entryDx=0;entryDy=0;" edge="1" parent="1" source="jhZBDQJKlJrp_bP3Eso0-31" target="jhZBDQJKlJrp_bP3Eso0-32">
          <mxGeometry relative="1" as="geometry" />
        </mxCell>
        <mxCell id="jhZBDQJKlJrp_bP3Eso0-31" value="SB software generate .MRT" style="rounded=0;whiteSpace=wrap;html=1;" vertex="1" parent="1">
          <mxGeometry x="220" y="1440" width="120" height="60" as="geometry" />
        </mxCell>
        <mxCell id="jhZBDQJKlJrp_bP3Eso0-50" style="edgeStyle=orthogonalEdgeStyle;rounded=0;orthogonalLoop=1;jettySize=auto;html=1;entryX=0;entryY=0.75;entryDx=0;entryDy=0;exitX=0.5;exitY=1;exitDx=0;exitDy=0;" edge="1" parent="1" source="jhZBDQJKlJrp_bP3Eso0-32" target="jhZBDQJKlJrp_bP3Eso0-45">
          <mxGeometry relative="1" as="geometry" />
        </mxCell>
        <mxCell id="jhZBDQJKlJrp_bP3Eso0-32" value="&lt;div&gt;SB upload .MRT on AWS&lt;/div&gt;&lt;div&gt;to update cards status&lt;br&gt;&lt;/div&gt;" style="rounded=0;whiteSpace=wrap;html=1;" vertex="1" parent="1">
          <mxGeometry x="30" y="1440" width="120" height="60" as="geometry" />
        </mxCell>
        <mxCell id="jhZBDQJKlJrp_bP3Eso0-36" value="yes" style="edgeStyle=orthogonalEdgeStyle;rounded=0;orthogonalLoop=1;jettySize=auto;html=1;entryX=0.5;entryY=0;entryDx=0;entryDy=0;" edge="1" parent="1" source="jhZBDQJKlJrp_bP3Eso0-34" target="jhZBDQJKlJrp_bP3Eso0-29">
          <mxGeometry relative="1" as="geometry" />
        </mxCell>
        <mxCell id="jhZBDQJKlJrp_bP3Eso0-46" value="no" style="edgeStyle=orthogonalEdgeStyle;rounded=0;orthogonalLoop=1;jettySize=auto;html=1;" edge="1" parent="1" source="jhZBDQJKlJrp_bP3Eso0-34" target="jhZBDQJKlJrp_bP3Eso0-45">
          <mxGeometry relative="1" as="geometry" />
        </mxCell>
        <mxCell id="jhZBDQJKlJrp_bP3Eso0-34" value="Is .ORG generated?" style="rhombus;whiteSpace=wrap;html=1;" vertex="1" parent="1">
          <mxGeometry x="420" y="1250" width="80" height="80" as="geometry" />
        </mxCell>
        <mxCell id="jhZBDQJKlJrp_bP3Eso0-37" value="End" style="ellipse;whiteSpace=wrap;html=1;" vertex="1" parent="1">
          <mxGeometry x="593" y="1980" width="77" height="70" as="geometry" />
        </mxCell>
        <mxCell id="jhZBDQJKlJrp_bP3Eso0-42" value="&lt;div&gt;SB software generate .KPL&lt;br&gt;(order from kplus)&lt;br&gt;&lt;/div&gt;" style="rounded=0;whiteSpace=wrap;html=1;" vertex="1" parent="1">
          <mxGeometry x="400" y="1684" width="120" height="60" as="geometry" />
        </mxCell>
        <mxCell id="jhZBDQJKlJrp_bP3Eso0-59" style="edgeStyle=orthogonalEdgeStyle;rounded=0;orthogonalLoop=1;jettySize=auto;html=1;entryX=0;entryY=0.5;entryDx=0;entryDy=0;" edge="1" parent="1" source="jhZBDQJKlJrp_bP3Eso0-43" target="jhZBDQJKlJrp_bP3Eso0-57">
          <mxGeometry relative="1" as="geometry" />
        </mxCell>
        <mxCell id="jhZBDQJKlJrp_bP3Eso0-43" value="&lt;div&gt;SB software generate .PRE&lt;/div&gt;&lt;div&gt;(for pre-issue cards)&lt;br&gt;&lt;/div&gt;" style="rounded=0;whiteSpace=wrap;html=1;" vertex="1" parent="1">
          <mxGeometry x="750" y="1830" width="120" height="60" as="geometry" />
        </mxCell>
        <mxCell id="jhZBDQJKlJrp_bP3Eso0-60" style="edgeStyle=orthogonalEdgeStyle;rounded=0;orthogonalLoop=1;jettySize=auto;html=1;entryX=0;entryY=0.5;entryDx=0;entryDy=0;exitX=0.5;exitY=1;exitDx=0;exitDy=0;" edge="1" parent="1" source="jhZBDQJKlJrp_bP3Eso0-44" target="jhZBDQJKlJrp_bP3Eso0-37">
          <mxGeometry relative="1" as="geometry" />
        </mxCell>
        <mxCell id="jhZBDQJKlJrp_bP3Eso0-44" value="&lt;div&gt;SB upload .KPL on AWS&lt;/div&gt;&lt;div&gt;to update cards status&lt;br&gt;&lt;/div&gt;" style="rounded=0;whiteSpace=wrap;html=1;" vertex="1" parent="1">
          <mxGeometry x="200" y="1684" width="120" height="60" as="geometry" />
        </mxCell>
        <mxCell id="jhZBDQJKlJrp_bP3Eso0-53" style="edgeStyle=orthogonalEdgeStyle;rounded=0;orthogonalLoop=1;jettySize=auto;html=1;entryX=0.5;entryY=0;entryDx=0;entryDy=0;" edge="1" parent="1" source="jhZBDQJKlJrp_bP3Eso0-45" target="jhZBDQJKlJrp_bP3Eso0-51">
          <mxGeometry relative="1" as="geometry" />
        </mxCell>
        <mxCell id="jhZBDQJKlJrp_bP3Eso0-45" value="SB perform cards personalization" style="rounded=0;whiteSpace=wrap;html=1;" vertex="1" parent="1">
          <mxGeometry x="570" y="1560" width="120" height="60" as="geometry" />
        </mxCell>
        <mxCell id="jhZBDQJKlJrp_bP3Eso0-54" value="yes" style="edgeStyle=orthogonalEdgeStyle;rounded=0;orthogonalLoop=1;jettySize=auto;html=1;entryX=1;entryY=0.5;entryDx=0;entryDy=0;" edge="1" parent="1" source="jhZBDQJKlJrp_bP3Eso0-51" target="jhZBDQJKlJrp_bP3Eso0-42">
          <mxGeometry relative="1" as="geometry" />
        </mxCell>
        <mxCell id="jhZBDQJKlJrp_bP3Eso0-55" value="no" style="edgeStyle=orthogonalEdgeStyle;rounded=0;orthogonalLoop=1;jettySize=auto;html=1;entryX=0.5;entryY=0;entryDx=0;entryDy=0;" edge="1" parent="1" source="jhZBDQJKlJrp_bP3Eso0-51" target="jhZBDQJKlJrp_bP3Eso0-52">
          <mxGeometry relative="1" as="geometry" />
        </mxCell>
        <mxCell id="jhZBDQJKlJrp_bP3Eso0-51" value="Is the order from kplus?" style="rhombus;whiteSpace=wrap;html=1;" vertex="1" parent="1">
          <mxGeometry x="590" y="1674" width="80" height="80" as="geometry" />
        </mxCell>
        <mxCell id="jhZBDQJKlJrp_bP3Eso0-56" value="yes" style="edgeStyle=orthogonalEdgeStyle;rounded=0;orthogonalLoop=1;jettySize=auto;html=1;exitX=1;exitY=0.5;exitDx=0;exitDy=0;" edge="1" parent="1" source="jhZBDQJKlJrp_bP3Eso0-52" target="jhZBDQJKlJrp_bP3Eso0-43">
          <mxGeometry relative="1" as="geometry" />
        </mxCell>
        <mxCell id="jhZBDQJKlJrp_bP3Eso0-52" value="Is pre-issue cards?" style="rhombus;whiteSpace=wrap;html=1;" vertex="1" parent="1">
          <mxGeometry x="590" y="1820" width="80" height="80" as="geometry" />
        </mxCell>
        <mxCell id="jhZBDQJKlJrp_bP3Eso0-61" style="edgeStyle=orthogonalEdgeStyle;rounded=0;orthogonalLoop=1;jettySize=auto;html=1;entryX=1;entryY=0.5;entryDx=0;entryDy=0;exitX=0.5;exitY=1;exitDx=0;exitDy=0;" edge="1" parent="1" source="jhZBDQJKlJrp_bP3Eso0-57" target="jhZBDQJKlJrp_bP3Eso0-37">
          <mxGeometry relative="1" as="geometry" />
        </mxCell>
        <mxCell id="jhZBDQJKlJrp_bP3Eso0-57" value="&lt;div&gt;SB upload .PRE on AWS&lt;/div&gt;&lt;div&gt;to update cards status&lt;br&gt;&lt;/div&gt;" style="rounded=0;whiteSpace=wrap;html=1;" vertex="1" parent="1">
          <mxGeometry x="940" y="1830" width="120" height="60" as="geometry" />
        </mxCell>
        <mxCell id="jhZBDQJKlJrp_bP3Eso0-58" style="edgeStyle=orthogonalEdgeStyle;rounded=0;orthogonalLoop=1;jettySize=auto;html=1;entryX=1;entryY=0.5;entryDx=0;entryDy=0;" edge="1" parent="1" source="jhZBDQJKlJrp_bP3Eso0-42" target="jhZBDQJKlJrp_bP3Eso0-44">
          <mxGeometry relative="1" as="geometry" />
        </mxCell>
      </root>
    </mxGraphModel>
  </diagram>
</mxfile>
